<svg width="101" height="244" viewBox="0 0 101 244" fill="none" xmlns="http://www.w3.org/2000/svg">
<path d="M0 132.589C0 131.924 0 131.259 0 130.593C0.578775 129.07 0.612037 127.43 0.981256 125.863C1.13426 125.215 1.26066 124.327 2.03236 124.353C3.89509 124.423 3.67888 123.435 3.34957 122.224C3.25644 121.875 3.34292 121.466 3.39614 121.093C3.46267 120.631 3.45934 120.222 2.93711 120.042C1.99245 119.716 1.97914 118.995 2.10887 118.186C3.15 111.567 3.57244 104.891 4.06473 98.2185C4.37075 94.064 4.6934 89.8862 5.56488 85.7849C5.80438 84.6506 6.16694 83.7259 7.51409 83.4831C8.42549 83.3168 8.67496 82.412 8.91778 81.6603C9.15062 80.9418 8.63838 80.5127 8.04962 80.2167C7.14154 79.7643 7.07169 79.099 7.37106 78.1943C8.40886 75.0376 9.38014 71.8577 10.4046 68.6977C10.7007 67.783 10.8171 66.978 10.0155 66.2229C9.54978 65.7839 9.44001 65.1319 9.51652 64.4966C10.052 60.0627 10.7406 55.6786 12.3272 51.4476C14.9483 44.4524 19.9844 40.4442 27.1292 38.8908C28.9055 38.505 30.8314 38.8043 32.0089 36.7387C32.4347 35.9936 32.7739 35.7242 32.2617 34.9126C30.216 31.6927 30.5387 29.4974 33.3095 26.9927C34.7065 25.7287 34.773 24.8738 33.539 23.4103C32.6409 22.3459 32.5777 21.2415 33.1598 19.9875C33.7552 18.7069 34.3506 17.413 34.4105 15.9527C34.497 13.8239 34.6267 11.6984 34.7165 9.56958C34.8562 6.2699 36.4096 3.80845 39.3567 2.44134C45.3141 -0.322807 51.5009 -0.728614 57.7876 1.16737C59.84 1.78606 61.2736 3.22302 62.1284 5.21214C62.6939 6.52602 63.2295 7.86652 63.3758 9.28685C63.6985 12.4768 64.3438 15.5236 66.2364 18.2246C66.7653 18.9797 66.8252 19.9908 66.2032 20.9156C64.9624 22.7583 65.2019 23.8061 67.048 25.0335C67.996 25.6622 68.9274 26.2642 69.4862 27.3486C70.6404 29.5905 69.5095 31.2703 68.2588 32.9467C66.9782 34.6631 66.9715 34.6565 69.0139 35.4448C69.5893 35.6677 70.1648 35.8905 70.7369 36.1167C71.1394 36.2764 71.5984 36.4327 71.7215 36.8718C72.1772 38.505 73.4578 38.8343 74.8881 39.0039C75.5933 39.0871 76.2951 39.2301 76.9803 39.4131C80.9187 40.4708 84.8038 41.7914 87.3683 45.1709C91.5096 50.6293 93.043 57.0989 93.9577 63.7449C94.0675 64.5332 93.8779 65.3082 93.2093 65.7939C92.258 66.4824 92.2913 67.2741 92.6106 68.2919C93.7216 71.8244 94.7693 75.3769 95.8071 78.9327C95.9934 79.5747 96.3759 80.2832 95.5577 80.8586C94.8791 81.3376 94.1141 83.9022 94.3269 84.6672C94.4567 85.1296 94.7461 85.2926 95.1818 85.1562C96.7385 84.6706 97.2042 85.5886 97.4603 86.8659C98.4948 92.0117 98.9405 97.2173 98.6777 102.446C98.3917 108.064 98.9239 113.636 99.2598 119.221C99.3164 120.165 99.3596 121.04 98.3617 121.552C97.9094 121.785 97.753 122.148 98.0125 122.614C98.9039 124.227 98.1056 126.459 99.9384 127.763C100.324 128.035 100.181 128.751 100.171 129.269C100.105 132.619 99.5093 135.875 98.4549 139.052C98.1289 140.037 97.7131 140.911 96.4824 141.001C96.0067 141.038 95.7639 141.437 95.5976 141.843C94.3403 144.9 91.8489 146.826 89.2444 148.572C88.1001 149.337 87.6444 150.145 87.7509 151.479C88.14 156.409 88.007 161.352 88.0236 166.291C88.0303 167.904 87.9571 169.518 87.9006 171.131C87.8473 172.658 86.9293 173.3 85.5156 173.416C84.8038 173.476 84.1152 173.396 83.41 173.236C81.8567 172.884 80.3465 172.302 78.6834 172.175C78.7898 172.824 79.1724 173.25 79.5882 173.483C81.0251 174.284 80.8189 175.309 80.1436 176.476C79.7012 177.241 79.3487 177.973 79.2489 178.948C79.016 181.199 79.4085 183.401 79.4119 185.63C79.4152 190.047 79.4285 194.465 79.5615 198.879C79.7378 204.77 80.3499 210.624 81.5939 216.395C81.7868 217.29 81.6139 218.012 80.7657 218.617C79.7678 219.329 79.821 220.047 80.7923 220.716C81.2114 221.005 81.5407 221.341 81.6205 221.817C82.0529 224.365 84.2782 225.635 85.7318 227.408C86.9093 228.842 88.4993 229.999 89.6834 231.473C91.4597 233.682 92.747 236.16 93.0962 239.034C93.3523 241.143 92.9698 241.668 90.9441 242.127C89.3042 242.5 87.6344 242.506 85.9879 242.34C81.8733 241.918 78.3907 240.368 76.2685 236.546C75.7097 235.538 74.8582 234.763 74.0632 233.951C73.7971 233.682 73.4678 233.293 73.1085 233.406C71.2558 233.984 70.1115 232.607 68.7311 231.892C67.6102 231.313 67.2775 230.345 67.4173 229.145C67.517 228.296 67.7632 227.415 67.6235 226.603C67.0946 223.513 67.4339 220.39 67.1844 217.28C66.7221 211.509 66.6223 205.761 64.7828 200.149C62.9633 194.604 61.6328 188.903 61.3035 183.026C61.257 182.174 61.4066 181.226 61.0807 180.498C60.3123 178.788 60.2691 177.115 60.7347 175.362C60.8611 174.886 60.8744 174.377 60.442 174.048C58.5361 172.594 58.6491 170.632 59.055 168.606C59.2811 167.479 59.4574 166.364 59.1215 165.23C56.7465 157.167 55.2962 148.865 52.8082 140.832C52.4223 139.588 52.6086 138.393 53.0676 137.213C53.6564 135.693 54.5578 134.355 55.4626 133.015C55.7353 132.609 56.2043 132.283 56.1178 131.348C54.8705 132.875 53.703 134.106 53.0843 135.769C52.113 138.377 50.5397 140.469 47.5393 140.572C45.8596 140.629 45.3506 141.324 45.0978 142.797C44.0201 149.068 42.8559 155.324 41.7483 161.588C41.542 162.749 40.9766 164.013 42.4235 164.877C42.6064 164.987 42.673 165.39 42.6863 165.662C42.7728 167.276 43.0655 168.975 42.4468 170.466C41.3691 173.06 41.5953 175.788 41.3391 178.449C40.7936 184.16 40.9034 189.924 39.8988 195.609C39.3866 198.503 39.0207 201.433 38.7546 204.36C38.1825 210.581 38.9276 216.824 38.5317 223.058C38.4053 225.037 37.8964 227.019 38.2291 229.015C38.5484 230.931 37.78 232.348 36.3663 233.489C35.884 233.881 35.3718 234.39 35.6578 234.899C36.6324 236.635 36.1302 237.793 34.9028 239.283C34.0911 240.268 33.3826 241.269 32.2883 241.931C31.0177 242.699 29.594 243.085 28.1737 243.474H22.4824C21.5544 243.015 20.3602 242.709 20.2105 241.525C19.981 239.749 19.5719 237.979 19.685 236.176C19.7349 235.378 19.8912 234.576 20.4633 233.928C23.5135 230.482 25.0104 226.311 26.0049 221.913C26.2145 220.985 25.8952 219.974 25.1534 219.668C23.7298 219.079 23.9227 218.095 24.0424 216.997C24.4516 213.315 24.7476 209.629 24.7376 205.92C24.7276 202.119 24.6578 198.31 24.1522 194.555C23.2242 187.686 24.2453 180.724 22.9714 173.872C22.7252 172.544 22.2795 171.533 21.2284 170.811C20.4567 170.279 20.2006 169.654 20.3469 168.749C20.4833 167.908 20.4899 167.046 20.603 166.198C20.7694 164.937 20.9822 163.79 21.9435 162.719C22.5755 162.013 23.6666 161.501 23.5302 159.978C22.6288 149.962 21.4612 139.94 22.489 129.865C22.8184 126.632 22.8217 123.322 24.4815 120.322C26.2843 117.062 27.4851 113.609 26.9197 109.681C26.78 109.98 26.6469 110.22 26.5471 110.476C24.8806 114.82 23.1975 119.158 21.571 123.518C21.2018 124.513 20.7461 124.892 19.6717 124.5C18.0185 123.894 17.5595 123.073 18.2247 121.293C19.7216 117.291 21.2816 113.313 22.8117 109.322C22.998 108.839 23.2641 108.38 23.1377 107.822C22.2296 103.753 23.1477 99.6954 23.2109 95.634C23.2175 95.185 23.2973 94.7392 23.8229 94.6428C25.1601 94.3933 26.4673 93.8544 27.871 94.2935C29.2048 94.7093 29.7736 94.3833 29.8302 92.9996C29.89 91.5826 29.6971 90.1556 29.7237 88.7353C29.7404 87.8172 29.3279 87.5644 28.5263 87.591C27.9575 87.611 27.3887 87.591 26.8199 87.5777C26.0182 87.5578 25.6224 87.1254 25.5492 86.3403C25.3763 84.4943 25.4262 82.6482 25.5858 80.8054C25.6324 80.2599 25.7987 79.6878 26.3941 79.5946C27.555 79.4117 27.6481 78.6367 27.6315 77.7186C27.6115 76.6742 27.6315 75.6297 27.6315 74.5852C27.6315 72.4697 27.6315 70.3575 27.6315 68.1223C26.9197 68.4582 26.8831 68.9771 26.6968 69.3829C24.6611 73.8268 22.6454 78.2841 20.6064 82.728C19.8546 84.3712 19.1594 86.0876 16.6448 86.51C18.0451 87.1486 18.8035 87.8904 18.8834 89.0114C19.063 91.5127 19.5386 94.064 18.7769 96.5088C16.3554 104.312 14.0403 112.139 12.4303 120.159C12.274 120.937 11.9381 121.499 11.1032 121.835C9.84582 122.344 9.70611 124.087 10.8138 124.792C11.7751 125.404 12.4004 126.236 12.8894 127.25C14.2532 130.101 14.2265 133.251 14.8718 136.255C15.1047 137.339 15.6203 138.703 14.1434 139.398C13.2386 139.824 12.141 138.796 11.4125 137.003C11.03 136.065 10.7705 135.064 9.96557 134.026C9.34688 136.115 7.87333 137.954 9.07412 139.894C10.2583 141.813 10.4778 144.088 11.7451 145.941C12.2807 146.726 11.8682 149.044 11.2362 149.397C10.0055 150.089 9.18389 149.207 8.36895 148.495C7.97977 148.156 7.66377 147.727 7.34445 147.315C5.80105 145.335 4.87302 143.06 4.17782 140.672C4.00818 140.09 3.96161 139.431 3.30633 139.122C1.9226 138.47 1.4303 137.163 0.96795 135.865C0.588753 134.794 0.319324 133.687 0 132.592V132.589ZM75.8427 67.3639C75.3438 67.9526 75.4469 68.4516 75.5035 68.8906C75.8494 71.5384 75.6665 74.1994 75.6931 76.8538C75.7064 77.9481 75.5866 79.0258 76.8573 79.6346C77.3329 79.8641 77.3595 80.516 77.3662 81.0482C77.3762 81.8998 77.3861 82.7546 77.3595 83.6061C77.2498 87.3316 77.1167 87.4613 73.3979 87.5445C73.3514 87.5445 73.3015 87.5445 73.2549 87.5378C72.3867 87.3482 72.0674 87.7341 72.0075 88.5823C71.8911 90.2853 71.7248 91.9851 71.5285 93.6815C71.4021 94.7924 71.6283 95.4211 72.9289 95.6107C75.0677 95.9267 75.5168 96.4889 75.4236 98.6509C75.2706 102.187 75.9326 105.753 75.0278 109.262C74.9646 109.508 75.0744 109.827 75.1808 110.08C75.7829 111.524 76.3949 112.967 77.0369 114.394C77.2664 114.91 77.5392 115.542 78.2676 115.279C78.8763 115.063 79.5615 114.777 79.5649 113.949C79.5748 110.489 79.7877 107.01 79.495 103.574C79.209 100.224 79.1391 100.001 82.4853 99.7885C83.4067 99.732 83.6196 99.4925 83.3968 98.5911C82.8213 96.2859 82.5219 93.9343 82.4155 91.556C82.2725 88.3062 82.2558 88.3062 85.2562 87.4181C84.4678 87.3382 83.756 87.1387 83.3568 86.5033C82.5319 85.1828 81.4608 84.0053 80.9719 82.4852C80.2268 80.1834 79.505 77.8749 78.7266 75.5865C77.8053 72.8789 76.8373 70.1846 75.8494 67.3605L75.8427 67.3639ZM88.0602 117.278C87.987 117.288 87.9139 117.301 87.8407 117.311C87.7209 119.128 87.5912 120.94 87.4781 122.757C87.3828 124.282 88.048 124.892 89.4739 124.586C89.8398 124.51 90.2223 124.513 90.5948 124.463C91.0106 124.403 91.3233 124.204 91.3033 123.738C91.2834 123.285 90.9075 123.236 90.5782 123.249C89.5271 123.299 89.2144 122.633 89.0381 121.769C88.7288 120.269 88.3862 118.775 88.0569 117.281L88.0602 117.278Z" fill="#181A1C"/>
</svg>
