<svg width="800" height="623" viewBox="0 0 800 623" fill="none" xmlns="http://www.w3.org/2000/svg">
<path d="M612.759 0C617.483 0 622.221 0 626.944 0C629.81 1.58802 635.455 0.680582 634.718 5.48719C633.937 10.5774 635.739 11.0453 639.711 10.9602C640.987 10.9318 642.86 11.5274 643.47 12.4773C646.945 17.8795 651.782 21.3107 657.669 23.551C659.541 24.2599 660.733 25.8763 661.087 27.8046C662.222 34.0149 665.939 39.02 668.946 44.2804C670.52 47.0311 671.173 49.0161 669.712 51.9936C667.442 56.6301 667.428 61.8337 672.066 64.6978C677.783 68.2283 683.868 70.979 691.372 68.8522C703.117 65.5202 713.798 59.5935 725.997 56.8995C737.204 54.4182 747.856 57.098 758.538 55.5667C767.744 54.2481 772.893 59.4517 778.396 64.9389C789.617 76.1118 795.801 89.9928 800 104.951V114.877C791.669 120.784 787.309 126.475 786.922 131.948C787.872 131.579 788.751 131.296 789.602 130.913C791.475 130.076 793.347 128.12 795.418 129.878C797.589 131.721 796.596 134.273 795.858 136.485C794.567 140.328 792.652 144.042 789.773 146.793C778.453 157.597 764.892 165.693 754.154 177.405C748.097 184.012 738.948 185.232 729.813 181.247C724.267 178.823 720.777 181.347 719.742 187.33C718.891 192.222 717.728 197.043 716.976 201.949C715.728 210.158 718.408 217.673 723.629 223.514C728.934 229.441 731.388 235.737 730.99 243.421C730.409 254.651 727.856 265.498 722.636 275.409C718.068 284.058 712.196 292.594 702.323 295.188C685.017 299.74 667.357 304.05 649.895 295.188C648.222 294.338 646.392 293.785 644.619 293.132C628.944 287.319 615.001 294.252 600.872 299.3C599.17 299.91 597.993 302.32 596.844 304.078C587.964 317.676 579.496 321.419 563.836 317.605C558.204 316.23 553.906 317.165 549.41 320.668C534.132 332.578 518.543 344.105 503.28 356.044C498.273 359.957 493.535 361.559 487.833 357.901C483.492 355.108 479.648 355.703 475.62 359.106C467.137 366.281 458.371 373.101 449.676 379.992C446.342 382.629 444.342 385.706 444.257 390.172C443.874 409.767 443.392 429.362 442.768 448.957C442.626 453.409 444.271 456.472 447.661 459.265C458.413 468.127 468.981 477.216 479.591 486.262C481.705 488.062 485.024 489.92 483.648 493.053C479.563 502.425 485.578 508.381 491.025 513.613C502.528 524.644 504.713 551.271 488.202 563.38C485.152 565.62 481.989 567.705 479.038 570.058C465.747 580.664 452.47 591.298 439.278 602.046C437.689 603.336 436.342 605.193 435.476 607.065C433.363 611.631 429.873 614.466 425.405 616.522C421.561 618.295 417.901 620.492 414.171 622.492H412.752C409.646 620.095 409.433 617.557 412.341 614.835C416.128 611.29 419.674 607.434 423.746 604.229C432.824 597.055 441.86 589.852 449.817 581.401C450.853 580.295 452.768 579.147 451.193 577.304C449.86 575.758 448.101 576.382 446.697 577.389C441.533 581.089 436.143 584.521 432.086 589.597C427.292 595.58 420.795 599.564 414.44 603.591C412.199 605.023 408.894 606.129 406.738 603.223C404.809 600.628 406.639 598.203 408.383 596.261C412.327 591.865 416.171 587.328 420.54 583.401C425.547 578.92 423.561 577.119 418.455 575.517C411.688 573.405 405.05 570.923 398.284 568.811C341.955 551.172 285.542 533.789 229.313 515.81C217.667 512.095 206.674 510.139 194.901 514.563C189.879 516.448 184.333 516.973 179.013 518.051C167.552 520.376 158.332 516.335 150.09 508.48C134.884 493.975 124.331 476.606 117.508 456.883C116.146 452.927 113.834 450.021 110.642 447.327C101.181 439.344 92.4855 430.511 88.9961 418.203C80.2298 387.294 68.3854 357.462 57.8177 327.176C54.2431 316.924 50.4273 306.758 46.6541 296.578C45.6896 293.969 44.725 290.254 41.0227 291.941C34.2282 295.046 26.5825 297.173 21.7596 303.355C19.2064 306.616 16.2559 308.516 12.4402 309.098C9.64573 309.523 5.74488 311.678 4.34058 307.822C3.14905 304.575 6.97897 303.256 9.30529 301.852C17.7879 296.72 26.3839 291.771 34.8523 286.61C36.8524 285.391 39.7319 284.753 40.0298 281.52C36.824 280.4 34.7814 282.413 32.5827 283.533C24.7952 287.503 17.0786 291.587 9.36203 295.685C6.31228 297.315 3.27671 298.322 0 296.379C0 295.429 0 294.494 0 293.544C1.92915 292.197 4.05688 291.062 5.74488 289.446C10.2131 285.15 14.9651 282.626 21.405 281.066C30.8522 278.769 40.7107 274.303 46.7534 266.377C58.0021 251.574 71.804 244.981 90.2018 248.086C91.5068 248.313 93.1381 248.03 94.287 247.392C97.8191 245.463 100.94 246.201 104.387 247.803C116.813 253.588 129.38 259.047 141.778 264.874C147.168 267.398 152.374 267.951 158.233 266.575C199.638 256.877 241.101 247.42 282.521 237.807C291.244 235.779 300.152 234.418 308.252 230.15C326.437 220.551 344.31 210.272 362.992 201.793C380.95 193.64 393.106 180.468 402.582 163.893C404.653 160.277 405.348 157.229 403.546 153.329C400.95 147.729 398.865 141.745 399.887 135.507C404.284 108.553 421.987 85.0444 457.094 90.8861C467.747 92.6584 478.513 95.6927 489.393 94.3173C505.323 92.2898 521.125 89.3406 536.998 86.8735C541.523 86.1645 543.991 83.9243 544.828 79.2027C546.956 67.1224 549.495 55.113 551.779 43.0468C552.218 40.7073 552.303 38.0417 554.261 36.5813C560.871 31.6471 565.212 24.2599 572.417 19.9779C574.276 18.872 576.191 17.3974 578.276 17.8086C584.9 19.1414 589.539 15.3698 594.447 12.1229C600.56 8.08191 606.674 4.05513 612.788 0.0283576L612.759 0ZM64.3994 294.267C65.8747 300.236 68.4421 306.276 71.4777 312.075C72.5274 314.089 75.1942 314.344 77.1517 313.11C78.9815 311.962 82.3433 311.139 81.5206 308.346C79.6057 301.881 80.8539 293.997 73.6338 289.673C71.7472 288.538 70.6692 285.377 67.9173 286.582C65.0378 287.844 64.5697 290.864 64.3994 294.252V294.267Z" fill="#181A1C"/>
</svg>
