<svg width="434" height="45" viewBox="0 0 434 45" fill="none" xmlns="http://www.w3.org/2000/svg">
<path fill-rule="evenodd" clip-rule="evenodd" d="M96.6089 44.944L111.126 0H133.052L147.818 44.944H131.12L128.343 36.8473H115.225L112.439 44.944H96.6089ZM122.136 9.95449L115.8 27.762H127.97L122.136 9.95449ZM282.341 44.9627L296.858 0.018732H318.782L333.552 44.9627H316.852L314.08 36.8661H300.959L298.173 44.9627H282.341ZM307.867 9.97322L301.535 27.7807H313.704L307.867 9.97322ZM151.634 44.944V0H183.199C186.762 0 189.662 1.28385 191.944 2.8582C194.22 4.42787 196.175 6.45437 196.955 9.21183C198.061 13.1219 197.816 16.2683 197.08 18.4237C196.342 20.5814 195.06 22.3923 193.229 23.8425C191.399 25.2927 189.873 26.4336 186.451 27.263C187.771 28.6195 187.759 28.6733 189.318 29.7885C191.441 31.3043 193.399 31.5198 200.66 31.5503L213.145 31.5549V44.944L200.574 44.9768C186.892 45.0119 182.076 44.9041 179.455 42.5286C176.158 39.5439 172.574 36.0461 167.594 30.1001V44.944H151.634ZM167.591 11.1985V19.4873H178.715C179.308 19.4873 179.958 19.2647 180.647 18.8172C181.336 18.3721 181.712 17.2452 181.753 15.4389C181.649 13.717 181.232 12.5807 180.512 12.0278C179.791 11.4773 179.176 11.1985 178.696 11.1985H167.591ZM434 0.018732H401.433C395.81 0.018732 392.462 2.7926 391.402 8.35906C390.347 13.9138 393.365 20.0144 400.463 26.6539C404.764 30.1095 404.019 31.7447 398.257 31.5737H390.685V31.5549L386.672 31.5503C379.409 31.5198 377.451 31.3066 375.331 29.7885C373.772 28.671 373.781 28.6195 372.464 27.263C375.885 26.4336 377.412 25.2927 379.242 23.8425C381.072 22.3923 382.36 20.5814 383.093 18.4237C383.826 16.2683 384.072 13.1219 382.965 9.21183C382.186 6.45437 380.233 4.42787 377.959 2.8582C375.677 1.28385 372.777 0 369.214 0H337.649V44.944H353.606V30.1001C358.584 36.0461 362.168 39.5439 365.467 42.5286C368.086 44.9041 372.902 45.0845 386.586 44.9768L388.959 44.958V44.9627H412.442C418.794 43.878 422.044 40.563 422.169 34.9965C422.283 29.4394 419.102 23.6434 412.442 17.8169C408.805 14.6354 409.529 13.396 414.767 13.396H434V0.018732ZM353.606 11.1985V19.4873H364.73C365.328 19.4873 365.971 19.2647 366.66 18.8172C367.349 18.3721 367.724 17.2452 367.766 15.4389C367.662 13.717 367.244 12.5807 366.525 12.0278C365.804 11.4773 365.193 11.1985 364.713 11.1985H353.606ZM35.0586 0C29.4332 0 26.095 2.77385 25.0303 8.34031C23.9748 13.8974 26.8188 20.1971 34.0866 26.6351C38.2181 30.2945 37.6451 31.5549 31.8852 31.5549H0V44.944H46.0682C52.5125 44.944 55.6767 40.5419 55.795 34.9778C55.9133 29.423 52.6749 23.6949 46.0682 17.7981C42.3751 14.6846 43.1569 13.218 48.3949 13.3796H68.1639V44.9463H82.5233V13.3773H102.571V0H35.0586ZM245.654 0L241.703 13.3539L237.321 0H220.851L235.368 44.944H249.59L254.462 29.9291L259.329 44.944H273.551L288.068 0H271.598L267.216 13.3539L263.265 0H245.654Z" fill="black"/>
</svg>
